<?xml version="1.0" encoding="utf-8"?>
<!-- Generator: Adobe Illustrator 23.0.1, SVG Export Plug-In . SVG Version: 6.00 Build 0)  -->
<svg version="1.1" id="Capa_1" xmlns="http://www.w3.org/2000/svg" xmlns:xlink="http://www.w3.org/1999/xlink" x="0px" y="0px"
	 viewBox="0 0 479.8 479.8" style="enable-background:new 0 0 479.8 479.8;" xml:space="preserve">
<style type="text/css">
	.st0{fill:#2C9A62;}
	.st1{fill:#FFC24B;}
</style>
<g>
	<path class="st0" d="M202.7,113.3c-11.4,0-44.4,20.3-53.4,36.8c-17.1,31.5-37.1,88.9-43,136.2l130.9-59.2c2.1-1,4.4-1.5,6.8-1.5
		l0,0c4.4,0,8.7,1.8,11.8,5l18.3,19C267.1,183.2,235.2,113.3,202.7,113.3z"/>
	<path class="st0" d="M275.4,280.8l9.5-5.5l-9.7-10l-26.6-27.6c-1.2-1.3-2.9-2-4.6-2c-0.9,0-1.8,0.2-2.6,0.6L105.2,298L3.8,343.8
		c-6.3,2.9-4.3,12.2,2.6,12.2H117h27.2L275.4,280.8z"/>
	<path class="st0" d="M377.4,240.1c-1.1-1.7-3-2.6-4.9-2.6c-1,0-2,0.2-2.9,0.8L301,277.7l-4.5,2.6l-4.5,2.6l-17.4,10l-110.4,63.3
		l-8.7,5l-8.7,5l-8.9,5.1l-5.6,3.2c-4.3,2.5-2.6,7.8,2.1,9.4l74.7,21.5c0.6,0.2,1.2,0.3,1.8,0.3H474c4.6,0,7.4-5.1,4.9-8.9
		L377.4,240.1z"/>
	<circle class="st1" cx="406.1" cy="113.3" r="39.1"/>
</g>
</svg>
